<?xml version="1.0" encoding="UTF-8"?>
<!DOCTYPE svg PUBLIC "-//W3C//DTD SVG 1.1//EN" "http://www.w3.org/Graphics/SVG/1.1/DTD/svg11.dtd">
<svg xmlns="http://www.w3.org/2000/svg" version="1.1" width="1000px" height="1000px" style="shape-rendering:geometricPrecision; text-rendering:geometricPrecision; image-rendering:optimizeQuality; fill-rule:evenodd; clip-rule:evenodd" xmlns:xlink="http://www.w3.org/1999/xlink">
<g><path style="opacity:1" fill="#7dd857" d="M 500.5,-0.5 C 516.5,-0.5 532.5,-0.5 548.5,-0.5C 548.414,0.495904 548.748,1.32924 549.5,2C 675.006,13.7983 772.173,71.965 841,176.5C 888.028,252.442 905.194,334.609 892.5,423C 884.462,460.113 872.629,495.946 857,530.5C 829.685,590.064 798.685,647.397 764,702.5C 702.433,798.8 635.599,891.3 563.5,980C 537.5,1000.67 511.5,1000.67 485.5,980C 391.857,866.326 308.357,745.492 235,617.5C 212.966,577.433 193.633,536.099 177,493.5C 141.406,402.718 143.406,312.718 183,223.5C 232.793,116.71 314.293,46.8769 427.5,14C 451.103,7.62177 475.103,3.62177 499.5,2C 500.252,1.32924 500.586,0.495904 500.5,-0.5 Z"/></g>
<g><path style="opacity:1" fill="#1e3050" d="M 463.5,310.5 C 497.633,308.987 531.633,307.987 565.5,307.5C 574.713,303.156 576.88,296.489 572,287.5C 570.871,285.859 569.371,284.859 567.5,284.5C 567.082,283.778 566.416,283.278 565.5,283C 536.33,282.17 507.33,282.336 478.5,283.5C 453.478,284.729 429.811,291.062 407.5,302.5C 414.862,276.682 429.195,255.182 450.5,238C 468.343,223.414 488.676,214.247 511.5,210.5C 516.536,210.412 521.536,209.912 526.5,209C 560.167,208.667 593.833,208.333 627.5,208C 631.465,207.892 635.132,207.059 638.5,205.5C 664.737,198.439 684.404,182.939 697.5,159C 700.5,157 703.5,157 706.5,159C 720.375,194.151 726.209,230.651 724,268.5C 721.21,326.232 701.543,377.232 665,421.5C 627.449,464.022 580.282,484.189 523.5,482C 476.605,475.988 441.105,452.822 417,412.5C 411.803,402.062 407.303,391.395 403.5,380.5C 372.324,411.5 358.157,449.166 361,493.5C 357.338,504.252 349.838,508.752 338.5,507C 331.599,504.432 327.099,499.598 325,492.5C 321.445,423.442 348.279,369.942 405.5,332C 423.406,320.976 442.74,313.809 463.5,310.5 Z"/></g>
<g><path style="opacity:1" fill="#2c4851" d="M 638.5,205.5 C 635.132,207.059 631.465,207.892 627.5,208C 593.833,208.333 560.167,208.667 526.5,209C 521.536,209.912 516.536,210.412 511.5,210.5C 515.619,209.262 519.953,208.429 524.5,208C 558.5,207.667 592.5,207.333 626.5,207C 630.491,206.358 634.491,205.858 638.5,205.5 Z"/></g>
<g><path style="opacity:1" fill="#6ebc55" d="M 478.5,283.5 C 507.33,282.336 536.33,282.17 565.5,283C 566.416,283.278 567.082,283.778 567.5,284.5C 537.858,283.532 508.192,283.198 478.5,283.5 Z"/></g>
<g><path style="opacity:1" fill="#2c4951" d="M 565.5,307.5 C 531.633,307.987 497.633,308.987 463.5,310.5C 468.62,309.203 473.954,308.369 479.5,308C 508.165,307.5 536.831,307.333 565.5,307.5 Z"/></g>
</svg>
