<?xml version="1.0" encoding="UTF-8"?>
<!DOCTYPE svg PUBLIC "-//W3C//DTD SVG 1.1//EN" "http://www.w3.org/Graphics/SVG/1.1/DTD/svg11.dtd">
<svg xmlns="http://www.w3.org/2000/svg" version="1.1" width="1000px" height="1000px" style="shape-rendering:geometricPrecision; text-rendering:geometricPrecision; image-rendering:optimizeQuality; fill-rule:evenodd; clip-rule:evenodd" xmlns:xlink="http://www.w3.org/1999/xlink">
<g><path style="opacity:0.999" fill="#fe904d" d="M 500.5,-0.5 C 516.5,-0.5 532.5,-0.5 548.5,-0.5C 548.414,0.495904 548.748,1.32924 549.5,2C 681.158,14.535 780.991,77.035 849,189.5C 888.75,259.915 903.75,335.249 894,415.5C 886.819,452.04 875.819,487.374 861,521.5C 827.722,595.078 789.055,665.411 745,732.5C 688.466,819.04 627.299,902.206 561.5,982C 532.293,1001.77 505.127,999.272 480,974.5C 407.513,883.864 340.179,789.53 278,691.5C 243.865,637.24 213.865,580.574 188,521.5C 131.206,394.997 141.539,274.331 219,159.5C 288.283,64.9167 381.783,12.4167 499.5,2C 500.252,1.32924 500.586,0.495904 500.5,-0.5 Z"/></g>
<g><path style="opacity:1" fill="#1f3050" d="M 383.5,175.5 C 390.402,174.867 395.569,177.534 399,183.5C 399.333,220.833 399.667,258.167 400,295.5C 404.171,301.729 408.837,302.062 414,296.5C 417.633,261.534 420.967,226.534 424,191.5C 424.977,177.774 431.811,173.274 444.5,178C 446.378,179.543 447.878,181.376 449,183.5C 452.547,221.183 456.214,258.85 460,296.5C 465.736,302.282 470.402,301.616 474,294.5C 474.333,257.5 474.667,220.5 475,183.5C 481.863,173.71 489.53,173.044 498,181.5C 506.333,218.167 514.667,254.833 523,291.5C 528.231,331.555 512.064,358.722 474.5,373C 470.56,374.015 466.56,374.515 462.5,374.5C 462.667,433.834 462.5,493.168 462,552.5C 456.71,572.564 444.21,579.064 424.5,572C 419.555,569.054 416.055,564.888 414,559.5C 412.678,498.224 412.011,436.891 412,375.5C 377.583,369.75 356.916,349.75 350,315.5C 349.225,307.452 349.558,299.452 351,291.5C 359,255.5 367,219.5 375,183.5C 377.074,179.923 379.907,177.256 383.5,175.5 Z"/></g>
<g><path style="opacity:1" fill="#1e3050" d="M 671.5,175.5 C 685.247,175.284 694.414,181.618 699,194.5C 699.667,314.5 699.667,434.5 699,554.5C 693.478,572.291 681.645,578.458 663.5,573C 657.837,569.542 653.671,564.708 651,558.5C 649.533,522.54 649.033,486.54 649.5,450.5C 638.495,450.667 627.495,450.5 616.5,450C 593.126,444.626 579.293,430.126 575,406.5C 574.333,370.167 574.333,333.833 575,297.5C 578.65,244.241 604.15,205.741 651.5,182C 658.126,179.29 664.793,177.124 671.5,175.5 Z"/></g>
</svg>
