<?xml version="1.0" encoding="UTF-8"?>
<!DOCTYPE svg PUBLIC "-//W3C//DTD SVG 1.1//EN" "http://www.w3.org/Graphics/SVG/1.1/DTD/svg11.dtd">
<svg xmlns="http://www.w3.org/2000/svg" version="1.1" width="1000px" height="1000px" style="shape-rendering:geometricPrecision; text-rendering:geometricPrecision; image-rendering:optimizeQuality; fill-rule:evenodd; clip-rule:evenodd" xmlns:xlink="http://www.w3.org/1999/xlink">
<g><path style="opacity:0.999" fill="#37b5fe" d="M 500.5,-0.5 C 516.5,-0.5 532.5,-0.5 548.5,-0.5C 548.414,0.495904 548.748,1.32924 549.5,2C 681.158,14.535 780.991,77.035 849,189.5C 888.75,259.915 903.75,335.249 894,415.5C 886.819,452.04 875.819,487.374 861,521.5C 827.722,595.078 789.055,665.411 745,732.5C 688.466,819.04 627.299,902.206 561.5,982C 532.293,1001.77 505.127,999.272 480,974.5C 407.513,883.864 340.179,789.53 278,691.5C 243.865,637.24 213.865,580.574 188,521.5C 131.206,394.997 141.539,274.331 219,159.5C 288.283,64.9167 381.783,12.4167 499.5,2C 500.252,1.32924 500.586,0.495904 500.5,-0.5 Z"/></g>
<g><path style="opacity:1" fill="#1e3050" d="M 336.5,195.5 C 352.549,195.078 368.549,195.578 384.5,197C 394.788,200.458 402.455,206.958 407.5,216.5C 504.165,217.333 600.832,217.833 697.5,218C 714.921,222.433 722.421,233.599 720,251.5C 710.308,288.937 700.308,326.27 690,363.5C 682.914,380.458 670.414,390.958 652.5,395C 582.834,395.5 513.167,395.667 443.5,395.5C 444.676,403.212 446.176,410.878 448,418.5C 450.256,423.757 454.09,427.257 459.5,429C 529.5,429.333 599.5,429.667 669.5,430C 679.386,435.134 682.219,442.968 678,453.5C 675.708,457.788 672.208,460.622 667.5,462C 596.833,462.667 526.167,462.667 455.5,462C 434.623,457.456 421.123,444.956 415,424.5C 402.461,360.546 390.127,296.546 378,232.5C 377.5,230.667 376.333,229.5 374.5,229C 361.833,228.667 349.167,228.333 336.5,228C 324.348,222.189 321.515,213.356 328,201.5C 330.671,199.098 333.505,197.098 336.5,195.5 Z"/></g>
<g><path style="opacity:1" fill="#1e3051" d="M 440.5,484.5 C 460.112,483.374 472.945,492.04 479,510.5C 481.79,530.099 473.957,543.265 455.5,550C 426.751,552.586 412.918,539.419 414,510.5C 418.096,496.904 426.929,488.237 440.5,484.5 Z"/></g>
<g><path style="opacity:1" fill="#1e3051" d="M 640.5,484.5 C 660.112,483.374 672.945,492.04 679,510.5C 681.79,530.099 673.957,543.265 655.5,550C 626.751,552.586 612.918,539.419 614,510.5C 618.096,496.904 626.929,488.237 640.5,484.5 Z"/></g>
</svg>
