<?xml version="1.0" encoding="UTF-8"?>
<!DOCTYPE svg PUBLIC "-//W3C//DTD SVG 1.1//EN" "http://www.w3.org/Graphics/SVG/1.1/DTD/svg11.dtd">
<svg xmlns="http://www.w3.org/2000/svg" version="1.1" width="1000px" height="1000px" style="shape-rendering:geometricPrecision; text-rendering:geometricPrecision; image-rendering:optimizeQuality; fill-rule:evenodd; clip-rule:evenodd" xmlns:xlink="http://www.w3.org/1999/xlink">
<g><path style="opacity:1" fill="#ca6be5" d="M 500.5,-0.5 C 516.5,-0.5 532.5,-0.5 548.5,-0.5C 548.414,0.495904 548.748,1.32924 549.5,2C 675.006,13.7983 772.173,71.965 841,176.5C 888.028,252.442 905.194,334.609 892.5,423C 884.462,460.113 872.629,495.946 857,530.5C 829.685,590.064 798.685,647.397 764,702.5C 702.433,798.8 635.599,891.3 563.5,980C 537.5,1000.67 511.5,1000.67 485.5,980C 391.857,866.326 308.357,745.492 235,617.5C 212.966,577.433 193.633,536.099 177,493.5C 141.406,402.718 143.406,312.718 183,223.5C 232.793,116.71 314.293,46.8769 427.5,14C 451.103,7.62177 475.103,3.62177 499.5,2C 500.252,1.32924 500.586,0.495904 500.5,-0.5 Z"/></g>
<g><path style="opacity:1" fill="#55437f" d="M 482.5,193.5 C 475.798,193.336 469.131,193.669 462.5,194.5C 462.918,193.778 463.584,193.278 464.5,193C 470.681,192.181 476.681,192.347 482.5,193.5 Z"/></g>
<g><path style="opacity:1" fill="#574481" d="M 582.5,193.5 C 572.923,192.825 563.589,193.825 554.5,196.5C 556.858,194.871 559.524,193.705 562.5,193C 569.346,192.179 576.013,192.346 582.5,193.5 Z"/></g>
<g><path style="opacity:1" fill="#1e3050" d="M 482.5,193.5 C 486.595,193.808 490.595,194.641 494.5,196C 506.196,202.024 516.196,210.191 524.5,220.5C 530.323,213.844 536.657,207.677 543.5,202C 546.86,199.454 550.526,197.621 554.5,196.5C 563.589,193.825 572.923,192.825 582.5,193.5C 604.969,198.467 619.135,212.134 625,234.5C 627.927,251.217 624.261,266.217 614,279.5C 588.862,305.639 563.362,331.472 537.5,357C 529.845,362.073 521.845,362.74 513.5,359C 486.972,332.805 460.805,306.305 435,279.5C 422.037,261.035 420.037,241.368 429,220.5C 436.287,206.699 447.454,198.033 462.5,194.5C 469.131,193.669 475.798,193.336 482.5,193.5 Z"/></g>
<g><path style="opacity:1" fill="#403b6e" d="M 573.5,411.5 C 531.016,410.846 488.682,411.513 446.5,413.5C 444.929,412.691 443.262,412.357 441.5,412.5C 442.609,411.71 443.942,411.21 445.5,411C 488.335,410.169 531.002,410.335 573.5,411.5 Z"/></g>
<g><path style="opacity:1" fill="#1e3050" d="M 605.5,536.5 C 600.607,537.796 595.94,539.462 591.5,541.5C 589.265,541.205 587.265,541.539 585.5,542.5C 504.179,543.477 422.845,543.811 341.5,543.5C 332.82,540.986 327.32,535.319 325,526.5C 324.333,508.167 324.333,489.833 325,471.5C 327.257,464.413 331.757,459.413 338.5,456.5C 349.983,455.921 361.316,455.254 372.5,454.5C 384.67,444.5 397.004,434.667 409.5,425C 415.794,421.019 422.461,417.853 429.5,415.5C 432.152,415.59 434.485,414.924 436.5,413.5C 437.919,412.549 439.585,412.216 441.5,412.5C 443.262,412.357 444.929,412.691 446.5,413.5C 488.682,411.513 531.016,410.846 573.5,411.5C 584.445,414.121 590.445,421.121 591.5,432.5C 590.206,443.785 584.206,451.118 573.5,454.5C 552.164,454.333 530.831,454.5 509.5,455C 508.944,455.383 508.611,455.883 508.5,456.5C 504.65,458.341 502.65,461.508 502.5,466C 502.732,471.472 505.398,475.138 510.5,477C 539.5,477.667 568.5,477.667 597.5,477C 625.833,456 654.167,435 682.5,414C 698.356,406.733 711.189,410.233 721,424.5C 726.712,436.517 725.212,447.517 716.5,457.5C 685.974,480.526 655.308,503.359 624.5,526C 618.461,530.02 612.128,533.52 605.5,536.5 Z"/></g>
<g><path style="opacity:1" fill="#574380" d="M 436.5,413.5 C 434.485,414.924 432.152,415.59 429.5,415.5C 431.515,414.076 433.848,413.41 436.5,413.5 Z"/></g>
<g><path style="opacity:1" fill="#67498f" d="M 372.5,454.5 C 361.316,455.254 349.983,455.921 338.5,456.5C 339.263,455.732 340.263,455.232 341.5,455C 351.828,454.5 362.161,454.334 372.5,454.5 Z"/></g>
<g><path style="opacity:1" fill="#8253a6" d="M 573.5,454.5 C 551.961,455.188 530.294,455.854 508.5,456.5C 508.611,455.883 508.944,455.383 509.5,455C 530.831,454.5 552.164,454.333 573.5,454.5 Z"/></g>
<g><path style="opacity:1" fill="#9659b7" d="M 605.5,536.5 C 601.37,539.324 596.703,540.991 591.5,541.5C 595.94,539.462 600.607,537.796 605.5,536.5 Z"/></g>
<g><path style="opacity:1" fill="#a45ec4" d="M 585.5,542.5 C 583.708,543.309 581.708,543.809 579.5,544C 499.999,544.832 420.666,544.666 341.5,543.5C 422.845,543.811 504.179,543.477 585.5,542.5 Z"/></g>
</svg>
