<?xml version="1.0" encoding="UTF-8"?>
<!DOCTYPE svg PUBLIC "-//W3C//DTD SVG 1.1//EN" "http://www.w3.org/Graphics/SVG/1.1/DTD/svg11.dtd">
<svg xmlns="http://www.w3.org/2000/svg" version="1.1" width="1000px" height="1000px" style="shape-rendering:geometricPrecision; text-rendering:geometricPrecision; image-rendering:optimizeQuality; fill-rule:evenodd; clip-rule:evenodd" xmlns:xlink="http://www.w3.org/1999/xlink">
<g><path style="opacity:0.999" fill="#fe3131" d="M 500.5,-0.5 C 516.5,-0.5 532.5,-0.5 548.5,-0.5C 548.414,0.495904 548.748,1.32924 549.5,2C 681.158,14.535 780.991,77.035 849,189.5C 888.75,259.915 903.75,335.249 894,415.5C 886.819,452.04 875.819,487.374 861,521.5C 827.722,595.078 789.055,665.411 745,732.5C 688.466,819.04 627.299,902.206 561.5,982C 532.293,1001.77 505.127,999.272 480,974.5C 407.513,883.864 340.179,789.53 278,691.5C 243.865,637.24 213.865,580.574 188,521.5C 131.206,394.997 141.539,274.331 219,159.5C 288.283,64.9167 381.783,12.4167 499.5,2C 500.252,1.32924 500.586,0.495904 500.5,-0.5 Z"/></g>
<g><path style="opacity:1" fill="#1f304f" d="M 518.5,132.5 C 533.74,130.939 543.907,137.272 549,151.5C 549.5,162.828 549.667,174.162 549.5,185.5C 600.021,194.499 636.855,221.832 660,267.5C 665.88,280.306 670.047,293.639 672.5,307.5C 683.172,307.333 693.839,307.5 704.5,308C 720.642,313.115 726.809,323.949 723,340.5C 719.876,349.956 713.376,355.456 703.5,357C 693.151,357.168 682.817,357.668 672.5,358.5C 657.5,424.833 616.833,465.5 550.5,480.5C 549.914,492.208 549.08,503.874 548,515.5C 542.581,528.631 532.748,534.131 518.5,532C 508.105,528.94 501.938,522.107 500,511.5C 499.5,501.172 499.334,490.839 499.5,480.5C 432.638,465.972 391.638,425.305 376.5,358.5C 365.515,357.668 354.515,357.168 343.5,357C 327.782,351.066 321.949,339.899 326,323.5C 329.326,315.507 335.159,310.341 343.5,308C 354.495,307.5 365.495,307.333 376.5,307.5C 391.167,240.167 432.167,199.167 499.5,184.5C 499.062,172.424 499.562,160.424 501,148.5C 504.503,140.492 510.336,135.159 518.5,132.5 Z"/></g>
<g><path style="opacity:1" fill="#fd3131" d="M 535.5,233.5 C 582.738,240.902 611.905,267.902 623,314.5C 628.959,363.419 610.459,399.586 567.5,423C 522.368,441.337 482.868,433.17 449,398.5C 420.19,361.427 416.857,322.094 439,280.5C 453.804,257.205 474.638,242.205 501.5,235.5C 512.772,233.97 524.105,233.303 535.5,233.5 Z"/></g>
<g><path style="opacity:1" fill="#d73237" d="M 535.5,233.5 C 524.105,233.303 512.772,233.97 501.5,235.5C 505.264,234.168 509.264,233.335 513.5,233C 521.012,232.178 528.345,232.345 535.5,233.5 Z"/></g>
<g><path style="opacity:1" fill="#1f304f" d="M 512.5,270.5 C 548.694,267.326 572.861,282.659 585,316.5C 591.203,349.922 579.37,374.422 549.5,390C 518.818,400.608 493.318,393.442 473,368.5C 461.437,349.144 459.437,328.811 467,307.5C 476.671,288.322 491.838,275.988 512.5,270.5 Z"/></g>
</svg>
