<?xml version="1.0" encoding="UTF-8"?>
<!DOCTYPE svg PUBLIC "-//W3C//DTD SVG 1.1//EN" "http://www.w3.org/Graphics/SVG/1.1/DTD/svg11.dtd">
<svg xmlns="http://www.w3.org/2000/svg" version="1.1" width="1000px" height="1000px" style="shape-rendering:geometricPrecision; text-rendering:geometricPrecision; image-rendering:optimizeQuality; fill-rule:evenodd; clip-rule:evenodd" xmlns:xlink="http://www.w3.org/1999/xlink">
<g><path style="opacity:1" fill="#fedd59" d="M 500.5,-0.5 C 516.5,-0.5 532.5,-0.5 548.5,-0.5C 548.414,0.495904 548.748,1.32924 549.5,2C 675.006,13.7983 772.173,71.965 841,176.5C 888.028,252.442 905.194,334.609 892.5,423C 884.462,460.113 872.629,495.946 857,530.5C 829.685,590.064 798.685,647.397 764,702.5C 702.433,798.8 635.599,891.3 563.5,980C 537.5,1000.67 511.5,1000.67 485.5,980C 391.857,866.326 308.357,745.492 235,617.5C 212.966,577.433 193.633,536.099 177,493.5C 141.406,402.718 143.406,312.718 183,223.5C 232.793,116.71 314.293,46.8769 427.5,14C 451.103,7.62177 475.103,3.62177 499.5,2C 500.252,1.32924 500.586,0.495904 500.5,-0.5 Z"/></g>
<g><path style="opacity:1" fill="#1e3050" d="M 509.5,157.5 C 591.607,155.294 654.44,188.628 698,257.5C 732.626,322.44 733.293,387.773 700,453.5C 654.492,528.508 587.659,562.674 499.5,556C 435.972,546.343 387.139,514.509 353,460.5C 315.764,393.179 315.097,325.512 351,257.5C 387.516,198.482 440.35,165.149 509.5,157.5 Z"/></g>
<g><path style="opacity:1" fill="#fcdb58" d="M 518.5,257.5 C 539.034,256.538 549.201,266.205 549,286.5C 544.776,302.042 534.61,308.876 518.5,307C 504.113,301.924 497.946,291.757 500,276.5C 503.017,266.984 509.184,260.651 518.5,257.5 Z"/></g>
<g><path style="opacity:1" fill="#fddc58" d="M 511.5,419.5 C 512.497,403.008 512.83,386.342 512.5,369.5C 505.5,369.5 498.5,369.5 491.5,369.5C 482.84,368.681 477.34,364.015 475,355.5C 473.312,344.205 477.812,336.705 488.5,333C 503.833,332.333 519.167,332.333 534.5,333C 541.996,334.661 546.83,339.161 549,346.5C 549.5,370.831 549.667,395.164 549.5,419.5C 563.724,417.928 572.058,424.094 574.5,438C 573.929,447.898 568.929,454.231 559.5,457C 535.833,457.667 512.167,457.667 488.5,457C 475.065,450.696 471.565,440.863 478,427.5C 480.928,423.619 484.761,421.119 489.5,420C 496.826,419.5 504.159,419.334 511.5,419.5 Z"/></g>
<g><path style="opacity:1" fill="#8a8454" d="M 491.5,369.5 C 498.5,369.5 505.5,369.5 512.5,369.5C 512.83,386.342 512.497,403.008 511.5,419.5C 511.5,403.167 511.5,386.833 511.5,370.5C 504.646,370.824 497.979,370.491 491.5,369.5 Z"/></g>
</svg>
